<svg width="20" height="20" viewBox="0 0 20 20" fill="none" xmlns="http://www.w3.org/2000/svg">
<path d="M13.2333 7.74189L10 10.9752L6.76668 7.74189C6.68953 7.66473 6.59793 7.60353 6.49713 7.56178C6.39633 7.52003 6.28829 7.49854 6.17918 7.49854C6.07007 7.49854 5.96203 7.52003 5.86123 7.56178C5.76042 7.60353 5.66883 7.66473 5.59168 7.74189C5.51453 7.81904 5.45333 7.91063 5.41157 8.01143C5.36982 8.11224 5.34833 8.22028 5.34833 8.32939C5.34833 8.4385 5.36982 8.54654 5.41157 8.64734C5.45333 8.74814 5.51453 8.83974 5.59168 8.91689L9.41668 12.7419C9.74168 13.0669 10.2667 13.0669 10.5917 12.7419L14.4167 8.91689C14.4939 8.83979 14.5552 8.74822 14.597 8.64741C14.6389 8.5466 14.6604 8.43853 14.6604 8.32939C14.6604 8.22025 14.6389 8.11218 14.597 8.01137C14.5552 7.91055 14.4939 7.81898 14.4167 7.74189C14.0917 7.42522 13.5583 7.41689 13.2333 7.74189Z" fill="#535B65"/>
</svg>
