<svg width="14" height="14" viewBox="0 0 14 14" fill="none" xmlns="http://www.w3.org/2000/svg">
<path d="M13.1405 3.843C13.0615 2.52925 11.9645 1.5 10.6433 1.5H10V1C10 0.724 9.77603 0.5 9.50003 0.5C9.22403 0.5 9.00003 0.724 9.00003 1V1.5H5.00003V1C5.00003 0.724 4.77603 0.5 4.50003 0.5C4.22403 0.5 4.00003 0.724 4.00003 1V1.5H3.35678C2.03528 1.5 0.938279 2.52925 0.859529 3.843C0.711279 6.314 0.714029 8.8205 0.867779 11.2928C0.945779 12.5483 1.95153 13.554 3.20703 13.632C4.46528 13.7102 5.73253 13.7493 6.99978 13.7493C8.26678 13.7493 9.53428 13.7102 10.7925 13.632C12.048 13.554 13.0538 12.5483 13.1318 11.2928C13.2858 8.82175 13.2885 6.3155 13.1405 3.843ZM12.134 11.2308C12.087 11.984 11.4838 12.5872 10.7308 12.634C8.25528 12.7878 5.74478 12.7878 3.26928 12.634C2.51603 12.587 1.91278 11.9838 1.86603 11.2308C1.74778 9.33 1.72353 7.40925 1.78678 5.5H12.2135C12.2765 7.41 12.2523 9.33075 12.134 11.2308ZM4.50003 3.5C4.77603 3.5 5.00003 3.276 5.00003 3V2.5H9.00003V3C9.00003 3.276 9.22403 3.5 9.50003 3.5C9.77603 3.5 10 3.276 10 3V2.5H10.6433C11.4365 2.5 12.095 3.11625 12.1423 3.90275C12.154 4.10125 12.159 4.301 12.1688 4.5H1.83128C1.84128 4.301 1.84603 4.10125 1.85778 3.90275C1.90503 3.11625 2.56328 2.5 3.35678 2.5H4.00003V3C4.00003 3.276 4.22403 3.5 4.50003 3.5Z" fill="#536553"/>
<path d="M4.49988 8.5C4.91409 8.5 5.24988 8.16421 5.24988 7.75C5.24988 7.33579 4.91409 7 4.49988 7C4.08566 7 3.74988 7.33579 3.74988 7.75C3.74988 8.16421 4.08566 8.5 4.49988 8.5Z" fill="#536553"/>
<path d="M6.99988 8.5C7.41409 8.5 7.74988 8.16421 7.74988 7.75C7.74988 7.33579 7.41409 7 6.99988 7C6.58566 7 6.24988 7.33579 6.24988 7.75C6.24988 8.16421 6.58566 8.5 6.99988 8.5Z" fill="#536553"/>
<path d="M4.49988 11C4.91409 11 5.24988 10.6642 5.24988 10.25C5.24988 9.83579 4.91409 9.5 4.49988 9.5C4.08566 9.5 3.74988 9.83579 3.74988 10.25C3.74988 10.6642 4.08566 11 4.49988 11Z" fill="#536553"/>
<path d="M9.49988 8.5C9.91409 8.5 10.2499 8.16421 10.2499 7.75C10.2499 7.33579 9.91409 7 9.49988 7C9.08566 7 8.74988 7.33579 8.74988 7.75C8.74988 8.16421 9.08566 8.5 9.49988 8.5Z" fill="#536553"/>
<path d="M9.49988 11C9.91409 11 10.2499 10.6642 10.2499 10.25C10.2499 9.83579 9.91409 9.5 9.49988 9.5C9.08566 9.5 8.74988 9.83579 8.74988 10.25C8.74988 10.6642 9.08566 11 9.49988 11Z" fill="#536553"/>
<path d="M6.99988 11C7.41409 11 7.74988 10.6642 7.74988 10.25C7.74988 9.83579 7.41409 9.5 6.99988 9.5C6.58566 9.5 6.24988 9.83579 6.24988 10.25C6.24988 10.6642 6.58566 11 6.99988 11Z" fill="#536553"/>
</svg>
