<svg width="42" height="42" viewBox="0 0 42 42" fill="none" xmlns="http://www.w3.org/2000/svg">
<path d="M40.9755 20C40.9755 30.808 32.0398 39.5833 21 39.5833C9.96018 39.5833 1.02452 30.808 1.02452 20C1.02452 9.19201 9.96018 0.416667 21 0.416667C32.0398 0.416667 40.9755 9.19201 40.9755 20Z" fill="white" stroke="#038546" stroke-width="0.833333"/>
<circle cx="21" cy="20" r="18" fill="#F8EFE6"/>
<path d="M18.4792 30.9375C18.4319 30.9375 18.3881 30.9302 18.3444 30.912C15.3329 29.7089 9.72925 27.4667 9.72925 21.4437V17.0833C9.72925 16.8828 9.89331 16.7188 10.0938 16.7188C10.2944 16.7188 10.4584 16.8828 10.4584 17.0833V21.4437C10.4584 26.4859 14.5746 28.6078 18.4792 30.1792C19.4308 29.7964 20.5282 29.3333 21.5636 28.7609C21.7423 28.6625 21.961 28.7281 22.0595 28.9031C22.1579 29.0781 22.0923 29.3005 21.9173 29.399C20.798 30.0188 19.6204 30.5109 18.6178 30.9083C18.574 30.9266 18.5303 30.9339 18.4829 30.9339L18.4792 30.9375Z" fill="#038546"/>
<path d="M26.8647 20.1932C26.6641 20.1932 26.5001 20.0292 26.5001 19.8286V13.0656C22.8907 12.9125 19.3907 10.5464 18.4792 9.88281C17.5678 10.5464 14.0678 12.9125 10.4584 13.0656V15.625C10.4584 15.8255 10.2944 15.9896 10.0938 15.9896C9.89331 15.9896 9.72925 15.8255 9.72925 15.625V12.7083C9.72925 12.5078 9.89331 12.3438 10.0938 12.3438C14.0787 12.3438 18.2131 9.17188 18.2569 9.13906C18.3881 9.03698 18.574 9.03698 18.7053 9.13906C18.7454 9.17188 22.8834 12.3438 26.8683 12.3438C27.0688 12.3438 27.2329 12.5078 27.2329 12.7083V19.8286C27.2329 20.0292 27.0688 20.1932 26.8683 20.1932H26.8647Z" fill="#038546"/>
<path d="M18.4793 28.9687C18.4319 28.9687 18.3845 28.9578 18.3408 28.9396C16.7694 28.2906 15.6538 27.7109 14.7205 27.0693C14.5564 26.9562 14.5126 26.7266 14.6293 26.5625C14.7423 26.3984 14.972 26.3547 15.1361 26.4713C15.9965 27.0656 17.0319 27.6052 18.4793 28.2104C19.4819 27.7911 20.2731 27.4083 20.9585 27.0146C21.1335 26.9125 21.3559 26.9745 21.458 27.1495C21.56 27.3245 21.4981 27.5469 21.3231 27.649C20.5757 28.0792 19.7189 28.4911 18.6178 28.9469C18.5741 28.9651 18.5267 28.976 18.4793 28.976V28.9687Z" fill="#038546"/>
<path d="M13.7907 26.2089C13.6995 26.2089 13.6084 26.1761 13.5391 26.1068C12.2047 24.8162 11.5521 23.2922 11.5521 21.4438V14.3672C11.5521 14.1886 11.6797 14.0391 11.8547 14.0063C14.5563 13.5433 17.0427 12.1323 18.2823 11.3339C18.4026 11.2573 18.5558 11.2573 18.6761 11.3339C19.9157 12.1323 22.3985 13.5396 25.1037 14.0063C25.2787 14.0355 25.4063 14.1886 25.4063 14.3672V20.2407C25.4063 20.4412 25.2422 20.6053 25.0417 20.6053C24.8412 20.6053 24.6771 20.4412 24.6771 20.2407V14.6698C22.1032 14.1631 19.7698 12.887 18.4792 12.074C17.1886 12.8834 14.8552 14.1631 12.2813 14.6698V21.4438C12.2813 23.0844 12.8573 24.437 14.0422 25.5818C14.1881 25.7204 14.1917 25.9537 14.0532 26.0959C13.9802 26.1688 13.8855 26.2089 13.7907 26.2089Z" fill="#038546"/>
<path d="M19.573 24.375H17.3855C17.185 24.375 17.0209 24.2109 17.0209 24.0104V21.4583H14.4688C14.2683 21.4583 14.1042 21.2943 14.1042 21.0938V18.9062C14.1042 18.7057 14.2683 18.5417 14.4688 18.5417H17.0209V15.9896C17.0209 15.7891 17.185 15.625 17.3855 15.625H19.573C19.7735 15.625 19.9376 15.7891 19.9376 15.9896V18.5417H22.4897C22.6902 18.5417 22.8542 18.7057 22.8542 18.9062V21.0938C22.8542 21.2943 22.6902 21.4583 22.4897 21.4583H19.9376V24.0104C19.9376 24.2109 19.7735 24.375 19.573 24.375ZM17.7501 23.6458H19.2084V21.0938C19.2084 20.8932 19.3725 20.7292 19.573 20.7292H22.1251V19.2708H19.573C19.3725 19.2708 19.2084 19.1068 19.2084 18.9062V16.3542H17.7501V18.9062C17.7501 19.1068 17.586 19.2708 17.3855 19.2708H14.8334V20.7292H17.3855C17.586 20.7292 17.7501 20.8932 17.7501 21.0938V23.6458Z" fill="#038546"/>
<path d="M26.9559 30.9412C26.4819 30.9412 25.9642 30.7589 25.483 30.2448C25.4101 30.1683 25.3736 30.0589 25.3882 29.9532C25.3991 29.8474 25.4575 29.7526 25.5486 29.6907C25.5486 29.6907 25.6944 29.5886 25.8366 29.4136C25.4502 29.3443 25.0819 29.2094 24.7392 29.0198C24.6845 29.1292 24.6517 29.2313 24.6371 29.3297C24.6116 29.5266 24.4293 29.6688 24.2288 29.6396C24.196 29.636 23.3793 29.5193 22.9017 28.8922C22.6174 28.5203 22.5116 28.0573 22.5845 27.5177C22.5991 27.412 22.6575 27.3209 22.745 27.2625C22.8325 27.2042 22.9418 27.186 23.0403 27.2151C23.0403 27.2151 23.0767 27.2261 23.1387 27.2334C23.0111 26.9308 22.9272 26.6099 22.8835 26.2818C22.6611 26.3292 22.4752 26.4058 22.3366 26.5042C22.1762 26.6209 21.9538 26.588 21.8299 26.4276C21.808 26.3985 21.2903 25.7021 21.4142 24.8672C21.4908 24.3641 21.7752 23.9266 22.2637 23.5729C22.3476 23.511 22.4569 23.4891 22.5554 23.511C22.6575 23.5328 22.745 23.5985 22.796 23.6896C22.796 23.6896 22.9564 23.9703 23.2554 24.1672C23.4194 23.85 23.6272 23.5547 23.8752 23.2995C23.7804 23.2412 23.6856 23.1974 23.5944 23.1719C23.4996 23.1464 23.4194 23.0844 23.372 23.0005C23.3246 22.9167 23.3137 22.8146 23.3392 22.7235C23.5179 22.0964 24.2397 21.0136 25.7017 21.4146C25.8038 21.4438 25.8877 21.513 25.9351 21.6115C25.9825 21.7099 25.9825 21.8193 25.9387 21.9141C25.9387 21.9141 25.8804 22.0526 25.8585 22.2422C26.2194 22.1766 26.584 22.1657 26.9595 22.2167C26.9741 21.9032 26.9304 21.637 26.8319 21.4438C26.7882 21.3563 26.7809 21.2542 26.8101 21.163C26.8392 21.0719 26.9085 20.9953 26.996 20.9516C27.6377 20.638 29.0377 20.4266 29.7705 21.863C29.8179 21.9578 29.8252 22.0709 29.7814 22.1693C29.7413 22.2677 29.6575 22.3443 29.559 22.3771C29.5554 22.3771 29.0413 22.5594 28.797 23.0042C28.9757 23.15 29.1361 23.3104 29.2856 23.4854C29.3476 23.3724 29.384 23.263 29.4022 23.161C29.4314 22.9641 29.6137 22.8255 29.8179 22.8584C29.8507 22.862 30.6637 22.9933 31.134 23.6313C31.4111 24.0104 31.5095 24.4735 31.4257 25.013C31.4111 25.1151 31.3491 25.2099 31.2616 25.2646C31.1741 25.3193 31.0647 25.3375 30.9627 25.3047C30.9627 25.3047 30.5215 25.1844 30.1205 25.3558C30.1424 25.5162 30.1533 25.6766 30.1533 25.837C30.1533 25.9537 30.146 26.074 30.1314 26.2016C30.4231 26.3802 30.8387 26.5771 31.2215 26.5516C31.4184 26.537 31.597 26.6901 31.608 26.8907C31.608 26.9271 31.659 27.7802 31.1049 28.4146C30.7658 28.8011 30.2845 29.0198 29.6757 29.0563C29.57 29.0636 29.4679 29.0235 29.3913 28.9469C29.3147 28.8703 29.2783 28.7683 29.2856 28.6625C29.2856 28.6625 29.2965 28.4729 29.2382 28.2396C28.9174 28.6042 28.5236 28.9032 28.0861 29.1146C28.1444 29.3771 28.2502 29.6578 28.4288 29.8547C28.4944 29.9276 28.5309 30.0224 28.5272 30.1209C28.5236 30.2193 28.4799 30.3104 28.4069 30.3761C28.108 30.6422 27.5684 30.9412 26.9595 30.9412H26.9559ZM26.2996 29.9933C26.8283 30.3578 27.346 30.1865 27.6522 30.0188C27.4845 29.7308 27.3715 29.3698 27.3168 28.9469C27.295 28.7792 27.3897 28.6188 27.5465 28.5568C28.1444 28.3271 28.6549 27.9005 28.9903 27.3537C29.0522 27.2516 29.1616 27.186 29.2819 27.1787C29.4022 27.1714 29.5153 27.2261 29.5918 27.3209C29.8397 27.6417 29.9455 27.999 29.9856 28.2724C30.6127 28.0974 30.8022 27.5979 30.8569 27.2589C30.3465 27.1787 29.8689 26.9125 29.5262 26.6792C29.4095 26.599 29.3512 26.4604 29.3731 26.3183C29.4022 26.1433 29.4168 25.9828 29.4168 25.8334C29.4168 25.6328 29.395 25.4323 29.3549 25.2391C29.3257 25.1005 29.3804 24.9547 29.497 24.8709C29.9127 24.5683 30.3757 24.5209 30.7111 24.5354C30.6601 24.0141 30.2918 23.7698 30.0038 23.6604C29.909 23.8901 29.7595 24.1198 29.559 24.3495C29.4825 24.437 29.3731 24.4844 29.2564 24.4735C29.1397 24.4625 29.0377 24.4005 28.9757 24.3021C28.7569 23.9521 28.4799 23.6568 28.1444 23.4308C28.0168 23.3433 27.9585 23.1828 27.9986 23.0334C28.1627 22.4427 28.5856 22.0818 28.9137 21.8849C28.5054 21.3927 27.9585 21.4219 27.6194 21.5058C27.7215 21.9287 27.6887 22.3771 27.634 22.7125C27.6158 22.811 27.5575 22.9021 27.4736 22.9568C27.3897 23.0115 27.284 23.0297 27.1856 23.0078C26.6387 22.8766 26.1137 22.9021 25.6142 23.0589C25.5158 23.0917 25.4064 23.0771 25.3189 23.0261C25.2314 22.975 25.1658 22.8839 25.1476 22.7854C25.0929 22.5193 25.1075 22.2714 25.1403 22.0709C24.6262 22.0672 24.3163 22.3844 24.1668 22.6396C24.3418 22.738 24.5132 22.8657 24.6845 23.0297C24.7611 23.1026 24.8012 23.2047 24.7976 23.3068C24.7939 23.4125 24.7429 23.5073 24.6627 23.5729C24.2653 23.8938 23.959 24.3203 23.7767 24.8016C23.7075 24.9839 23.5069 25.0787 23.321 25.0167C22.9127 24.8818 22.6137 24.6229 22.4205 24.4078C22.2637 24.5828 22.1653 24.7724 22.1361 24.9766C22.0924 25.2573 22.1726 25.5308 22.2601 25.7203C22.5226 25.6073 22.8361 25.5344 23.1934 25.5089C23.2918 25.5016 23.3939 25.5344 23.4668 25.6037C23.5397 25.6729 23.5835 25.7677 23.5835 25.8698C23.5908 26.4094 23.7439 26.9344 24.0356 27.3938C24.1012 27.4959 24.1085 27.6198 24.0647 27.7328C24.0174 27.8422 23.9189 27.9224 23.8022 27.9479C23.62 27.9844 23.445 27.9953 23.2991 27.9917C23.3611 28.513 23.733 28.7464 24.021 28.8521C24.0939 28.6735 24.196 28.4948 24.3272 28.3125C24.4439 28.1521 24.67 28.1157 24.8304 28.2287C25.3007 28.5568 25.8549 28.7391 26.4309 28.7537C26.5476 28.7537 26.6533 28.8157 26.7189 28.9104C26.7845 29.0052 26.8028 29.1255 26.7663 29.2349C26.6569 29.5594 26.4674 29.8183 26.2996 30.0005V29.9933Z" fill="#038546"/>
<path d="M28.323 25.8334C27.3167 25.8334 26.5001 25.0167 26.5001 24.0105C26.5001 23.8099 26.6641 23.6459 26.8646 23.6459C27.0652 23.6459 27.2292 23.8099 27.2292 24.0105C27.2292 24.612 27.7214 25.1042 28.323 25.1042C28.5235 25.1042 28.6876 25.2683 28.6876 25.4688C28.6876 25.6693 28.5235 25.8334 28.323 25.8334Z" fill="#038546"/>
<path d="M26.1355 27.6562C25.935 27.6562 25.7709 27.4922 25.7709 27.2917C25.7709 26.6901 25.2787 26.1979 24.6771 26.1979C24.4766 26.1979 24.3126 26.0339 24.3126 25.8333C24.3126 25.6328 24.4766 25.4688 24.6771 25.4688C25.6834 25.4688 26.5001 26.2854 26.5001 27.2917C26.5001 27.4922 26.336 27.6562 26.1355 27.6562Z" fill="#038546"/>
<g clip-path="url(#clip0_297_5940)">
<path d="M35.9999 30C32.6914 30 29.9999 32.6915 29.9999 36C29.9999 39.3085 32.6914 42 35.9999 42C39.3085 42 41.9999 39.3085 41.9999 36C41.9999 32.6915 39.3085 30 35.9999 30ZM39.041 34.7285L35.7909 37.9785C35.6934 38.076 35.5654 38.125 35.4374 38.125C35.3094 38.125 35.1815 38.076 35.084 37.9785L33.459 36.3535C33.2634 36.158 33.2634 35.842 33.459 35.6465C33.6544 35.451 33.9704 35.451 34.166 35.6465L35.4374 36.918L38.334 34.0215C38.5294 33.826 38.8454 33.826 39.041 34.0215C39.2364 34.217 39.2364 34.533 39.041 34.7285Z" fill="#038546"/>
</g>
<defs>
<clipPath id="clip0_297_5940">
<rect width="12" height="12" fill="white" transform="translate(29.9999 30)"/>
</clipPath>
</defs>
</svg>
