<svg width="42" height="40" viewBox="0 0 42 40" fill="none" xmlns="http://www.w3.org/2000/svg">
<circle cx="21.6666" cy="20" r="18" fill="#F8EFE6"/>
<path d="M41.3088 20C41.3088 30.808 32.3731 39.5833 21.3333 39.5833C10.2935 39.5833 1.35783 30.808 1.35783 20C1.35783 9.19201 10.2935 0.416667 21.3333 0.416667C32.3731 0.416667 41.3088 9.19201 41.3088 20Z" stroke="#038546" stroke-width="0.833333"/>
<g clip-path="url(#clip0_297_5977)">
<path d="M24.0732 20.7586C24.0732 19.1492 22.7686 17.8446 21.1593 17.8446C19.5499 17.8446 18.2453 19.1492 18.2453 20.7586C18.2453 22.3679 19.5499 23.6725 21.1593 23.6725C22.7686 23.6725 24.0732 22.3679 24.0732 20.7586Z" stroke="#038546" stroke-width="0.911458" stroke-miterlimit="10" stroke-linecap="round" stroke-linejoin="round"/>
<path d="M16.1224 16.9218C16.1224 15.9371 15.3241 15.1388 14.3394 15.1388C13.3547 15.1388 12.5564 15.9371 12.5564 16.9218C12.5564 17.9066 13.3547 18.7048 14.3394 18.7048C15.3241 18.7048 16.1224 17.9066 16.1224 16.9218Z" stroke="#038546" stroke-width="0.911458" stroke-miterlimit="10" stroke-linecap="round" stroke-linejoin="round"/>
<path d="M26.309 14.5548C26.309 13.57 25.5107 12.7718 24.526 12.7718C23.5412 12.7718 22.743 13.57 22.743 14.5548C22.743 15.5395 23.5412 16.3378 24.526 16.3378C25.5107 16.3378 26.309 15.5395 26.309 14.5548Z" stroke="#038546" stroke-width="0.911458" stroke-miterlimit="10" stroke-linecap="round" stroke-linejoin="round"/>
<path d="M29.8748 21.8392C29.8748 20.8545 29.0766 20.0562 28.0918 20.0562C27.1071 20.0562 26.3088 20.8545 26.3088 21.8392C26.3088 22.8239 27.1071 23.6222 28.0918 23.6222C29.0766 23.6222 29.8748 22.8239 29.8748 21.8392Z" stroke="#038546" stroke-width="0.911458" stroke-miterlimit="10" stroke-linecap="round" stroke-linejoin="round"/>
<path d="M20.241 26.6825C20.241 25.6977 19.4428 24.8995 18.458 24.8995C17.4733 24.8995 16.675 25.6977 16.675 26.6825C16.675 27.6672 17.4733 28.4655 18.458 28.4655C19.4428 28.4655 20.241 27.6672 20.241 26.6825Z" stroke="#038546" stroke-width="0.911458" stroke-miterlimit="10" stroke-linecap="round" stroke-linejoin="round"/>
<path d="M15.8725 23.2568C15.8725 23.8086 15.4252 24.2559 14.8735 24.2559C14.3217 24.2559 13.8744 23.8086 13.8744 23.2568C13.8744 22.7051 14.3217 22.2578 14.8735 22.2578C15.4252 22.2578 15.8725 22.7051 15.8725 23.2568Z" stroke="#038546" stroke-width="0.911458" stroke-miterlimit="10" stroke-linecap="round" stroke-linejoin="round"/>
<path d="M25.7812 25.8333C25.7812 26.3851 25.3339 26.8324 24.7821 26.8324C24.2303 26.8324 23.783 26.3851 23.783 25.8333C23.783 25.2816 24.2303 24.8343 24.7821 24.8343C25.3339 24.8343 25.7812 25.2816 25.7812 25.8333Z" stroke="#038546" stroke-width="0.911458" stroke-miterlimit="10" stroke-linecap="round" stroke-linejoin="round"/>
<path d="M30.1112 16.5072C30.1112 17.0589 29.6639 17.5062 29.1121 17.5062C28.5603 17.5062 28.113 17.0589 28.113 16.5072C28.113 15.9554 28.5603 15.5081 29.1121 15.5081C29.6639 15.5081 30.1112 15.9554 30.1112 16.5072Z" stroke="#038546" stroke-width="0.911458" stroke-miterlimit="10" stroke-linecap="round" stroke-linejoin="round"/>
<path d="M19.6986 13.7707C19.6986 14.3225 19.2513 14.7698 18.6995 14.7698C18.1477 14.7698 17.7004 14.3225 17.7004 13.7707C17.7004 13.219 18.1477 12.7717 18.6995 12.7717C19.2513 12.7717 19.6986 13.219 19.6986 13.7707Z" stroke="#038546" stroke-width="0.911458" stroke-miterlimit="10" stroke-linecap="round" stroke-linejoin="round"/>
<path d="M29.2396 27.9488C29.2289 27.9596 29.2504 27.938 29.2396 27.9488" stroke="#038546" stroke-width="0.911458" stroke-miterlimit="10" stroke-linecap="round" stroke-linejoin="round"/>
<path d="M27.863 29.1155C23.4825 32.2612 17.3442 31.8651 13.4064 27.9273C9.02827 23.5492 9.02827 16.4508 13.4064 12.0727C17.7846 7.69455 24.8829 7.69455 29.261 12.0727C33.2017 16.0133 33.5955 22.1577 30.4423 26.5388" stroke="#038546" stroke-width="0.911458" stroke-miterlimit="10" stroke-linecap="round" stroke-linejoin="round"/>
</g>
<defs>
<clipPath id="clip0_297_5977">
<rect width="23.3333" height="23.3333" fill="white" transform="translate(9.66681 8.33337)"/>
</clipPath>
</defs>
</svg>
