<svg width="42" height="40" viewBox="0 0 42 40" fill="none" xmlns="http://www.w3.org/2000/svg">
<circle cx="20.3334" cy="20" r="18" fill="#F8EFE6"/>
<path d="M40.6422 20C40.6422 30.808 31.7065 39.5833 20.6667 39.5833C9.62687 39.5833 0.691203 30.808 0.691203 20C0.691203 9.19201 9.62687 0.416667 20.6667 0.416667C31.7065 0.416667 40.6422 9.19201 40.6422 20Z" stroke="#038546" stroke-width="0.833333"/>
<g clip-path="url(#clip0_297_5956)">
<path d="M21.175 19.8273C20.9048 19.8273 20.6389 19.7593 20.3997 19.625C19.9744 19.3872 19.6849 18.9752 19.6052 18.4952C19.5062 17.9015 19.1681 17.3817 18.6763 17.0716L12.8282 13.3766C12.6628 13.2718 12.6126 13.0532 12.7174 12.8878C12.8223 12.7224 13.0408 12.6722 13.2062 12.7771L19.0543 16.472C19.7159 16.8899 20.1723 17.5855 20.3037 18.3785C20.348 18.6458 20.509 18.8747 20.7467 19.0077C21.1455 19.2307 21.6565 19.1096 21.9119 18.73C21.9725 18.6414 22.0153 18.5439 22.0389 18.442C22.1394 18.0241 22.3697 17.6608 22.7035 17.3906C22.7847 17.3241 22.8541 17.2444 22.9088 17.1513C23.1406 16.7585 23.0313 16.2431 22.6592 15.9788C22.4022 15.7971 22.0759 15.7631 21.7879 15.8901C21.2016 16.1486 20.5356 16.1028 20.0054 15.7676L13.7955 11.8437C13.6301 11.7389 13.5799 11.5203 13.6847 11.3549C13.7896 11.1895 14.0081 11.1393 14.1735 11.2442L20.3835 15.168C20.7143 15.3762 21.1307 15.4043 21.5014 15.2404C22.0197 15.0115 22.606 15.0705 23.0683 15.3984C23.3946 15.6288 23.6206 15.9728 23.7048 16.3657C23.7889 16.7585 23.7225 17.1646 23.5202 17.5087C23.4227 17.6741 23.2986 17.8188 23.151 17.9385C22.9383 18.1098 22.7936 18.3416 22.7286 18.6074C22.6843 18.792 22.6075 18.9663 22.4997 19.1258C22.2767 19.4566 21.9385 19.6899 21.5472 19.783C21.4246 19.8125 21.2991 19.8273 21.175 19.8273Z" fill="#038546"/>
<path d="M21.689 29.9787C21.6698 29.9787 21.6491 29.9773 21.6299 29.9743C21.4364 29.9418 21.3065 29.7587 21.3405 29.5652L22.0611 25.318C22.2236 24.3374 22.7198 23.4557 23.4552 22.8355L23.4596 22.8311C23.5423 22.7602 23.5896 22.6597 23.5911 22.5505C23.5926 22.4382 23.5468 22.3349 23.4641 22.261L22.6947 21.5699C22.6194 21.5034 22.5278 21.465 22.4348 21.465C22.1689 21.4635 21.9075 21.3897 21.6801 21.2509C21.5826 21.1918 21.4734 21.1534 21.3567 21.1401C20.9432 21.0899 20.5533 21.3705 20.4691 21.7796C20.4189 22.0247 20.4839 22.2743 20.6449 22.4648C21.116 23.0186 21.3168 23.7585 21.1942 24.4954L20.3628 29.4072C20.3303 29.6007 20.1472 29.7306 19.9537 29.6981C19.7603 29.6657 19.6303 29.4825 19.6628 29.2891L20.4928 24.3787C20.5814 23.85 20.4381 23.3199 20.1029 22.9241C19.7987 22.5667 19.6791 22.0986 19.7721 21.6378C19.9286 20.8684 20.6611 20.3412 21.4394 20.4372C21.6565 20.4638 21.8603 20.5346 22.0449 20.6469C22.163 20.7192 22.2974 20.7576 22.4348 20.7576C22.7006 20.7591 22.9605 20.861 23.1643 21.0441L23.9322 21.7353C24.1656 21.945 24.2985 22.2462 24.294 22.5608C24.2896 22.8739 24.1523 23.1692 23.9145 23.3716L23.9071 23.3775C23.2987 23.8899 22.8896 24.6195 22.7537 25.4361L22.0331 29.6849C22.008 29.8562 21.8588 29.9787 21.689 29.9787Z" fill="#038546"/>
<path d="M25.1655 20.7562C25.1463 20.7562 25.1256 20.7562 25.1064 20.7547L23.7566 20.6661C23.445 20.6454 23.1762 20.4667 23.0359 20.1891C22.8956 19.91 22.9119 19.5881 23.0817 19.3252L23.6665 18.4155C23.8201 18.1777 24.08 18.0286 24.3636 18.0167C24.6471 18.0049 24.9188 18.1319 25.0901 18.3564C25.3205 18.6577 25.6026 19.0239 25.8566 19.3532C26.0678 19.6279 26.0973 19.9883 25.9334 20.294C25.7768 20.5834 25.4874 20.7562 25.1655 20.7562ZM24.3975 18.7256C24.3946 18.7256 24.3931 18.7256 24.3901 18.7256C24.3591 18.7271 24.3001 18.7389 24.2602 18.7994L23.6754 19.7092C23.6311 19.7771 23.6517 19.8391 23.6665 19.8701C23.6827 19.9011 23.7197 19.9543 23.8009 19.9587L25.1507 20.0473C25.2452 20.0532 25.2895 19.9897 25.3043 19.9617C25.319 19.9336 25.3471 19.8613 25.2895 19.7859C25.0355 19.4551 24.7549 19.0889 24.5245 18.7891C24.4846 18.7345 24.43 18.7256 24.3975 18.7256Z" fill="#038546"/>
<path d="M24.867 31.3418C24.8434 31.3418 24.8212 31.3389 24.7976 31.3344C24.6056 31.296 24.4816 31.11 24.52 30.918L26.5786 20.6425C27.0069 18.5011 26.044 16.2962 24.1818 15.1547L14.6402 9.31397C14.4733 9.21207 14.4202 8.99351 14.5236 8.82663C14.6255 8.65975 14.844 8.60659 15.0109 8.70996L24.5495 14.5507C25.5921 15.1887 26.4014 16.1176 26.8902 17.2384C27.379 18.3593 27.512 19.5836 27.2712 20.7827L25.2141 31.0568C25.1801 31.2252 25.0324 31.3418 24.867 31.3418Z" fill="#038546"/>
<path d="M17.0222 30.2815C16.9853 30.2815 16.9469 30.2756 16.9085 30.2623C16.7224 30.2003 16.6235 29.9979 16.6855 29.8133C16.6973 29.7779 17.898 26.179 17.5347 24.3152C17.3604 23.4277 17.4948 22.4013 17.9334 21.2627C18.1047 20.8167 18.2908 20.4431 18.4281 20.1891C17.2172 19.6737 16.0727 19.1051 15.0197 18.4937C14.0893 17.9547 13.2284 17.3817 12.4604 16.791C11.1416 15.7794 10.5539 15.0661 10.5303 15.0366C10.4062 14.8844 10.4298 14.6614 10.5805 14.5374C10.7326 14.4133 10.9556 14.437 11.0796 14.5876C11.0929 14.6039 11.6644 15.2891 12.9197 16.2505C14.0864 17.1454 16.1022 18.4686 19.072 19.6914C19.1695 19.7313 19.2433 19.8125 19.2758 19.9129C19.3068 20.0133 19.2935 20.1226 19.236 20.2112C19.2227 20.2319 17.8758 22.3674 18.2317 24.1809C18.6305 26.2277 17.4106 29.8857 17.3575 30.0408C17.3087 30.1885 17.1699 30.2815 17.0222 30.2815Z" fill="#038546"/>
<path d="M28.5205 17.7981C28.3728 17.7981 28.234 17.7036 28.1838 17.5559C28.1218 17.3699 28.2222 17.169 28.4083 17.107L30.2336 16.5C30.4197 16.438 30.6205 16.5384 30.6825 16.7245C30.7446 16.9106 30.6441 17.1114 30.4581 17.1734L28.6327 17.7804C28.5958 17.7922 28.5574 17.7981 28.5205 17.7981Z" fill="#038546"/>
<path d="M27.9179 16.4676C27.8146 16.4676 27.7127 16.4233 27.6418 16.3362C27.5192 16.184 27.5428 15.961 27.6949 15.837L29.1909 14.6275C29.343 14.5049 29.566 14.5286 29.6901 14.6807C29.8127 14.8328 29.789 15.0558 29.6369 15.1798L28.1409 16.3893C28.0745 16.4425 27.9962 16.4676 27.9179 16.4676Z" fill="#038546"/>
<path d="M30.5289 19.4964C30.5171 19.4964 30.5038 19.4964 30.4905 19.495L28.5795 19.2912C28.3846 19.2705 28.2443 19.0962 28.265 18.9013C28.2856 18.7064 28.4599 18.5661 28.6548 18.5867L30.5658 18.7891C30.7607 18.8097 30.901 18.984 30.8804 19.1789C30.8626 19.3606 30.7091 19.4964 30.5289 19.4964Z" fill="#038546"/>
</g>
<defs>
<clipPath id="clip0_297_5956">
<rect width="23.3333" height="23.3333" fill="white" transform="translate(9.00018 8.33337)"/>
</clipPath>
</defs>
</svg>
