<svg width="42" height="40" viewBox="0 0 42 40" fill="none" xmlns="http://www.w3.org/2000/svg">
<circle cx="21" cy="20" r="18" fill="#F8EFE6"/>
<path d="M40.9755 20C40.9755 30.808 32.0398 39.5833 21 39.5833C9.96018 39.5833 1.02452 30.808 1.02452 20C1.02452 9.19201 9.96018 0.416667 21 0.416667C32.0398 0.416667 40.9755 9.19201 40.9755 20Z" stroke="#038546" stroke-width="0.833333"/>
<g clip-path="url(#clip0_297_6009)">
<path d="M29.0835 23.6922C29.6999 22.4532 30.0721 21.0712 30.1768 19.6636C30.4382 16.1528 28.6663 12.2766 25.1018 11.2052C23.8007 10.8142 22.3941 10.8784 21.1905 11.3956C20.7056 11.6041 20.1581 11.6149 19.6707 11.4123C18.6857 11.0028 16.8589 9.97577 15.8082 9.07889C15.5874 8.8904 15.2567 8.91415 15.067 9.1339C14.7573 9.4927 14.3123 10.0082 14.0075 10.361C13.8127 10.5864 13.8438 10.9284 14.0762 11.1147C14.7757 11.6757 16.1372 12.7046 16.272 12.8112C17.8837 14.0852 18.7437 16.1015 18.6539 18.1427C18.5806 19.8056 17.7125 22.4951 16.0393 23.2152C15.0309 23.6492 14.0083 23.2269 12.9844 23.074C12.2473 22.964 11.4971 23.4216 11.141 24.0528C10.1654 25.7822 11.329 29.279 12.4208 31.326C12.5121 31.4973 12.6906 31.6038 12.8847 31.6038H14.8056C15.1872 31.6038 15.441 31.2108 15.2857 30.8623C14.8848 29.9626 14.4838 28.5648 14.3323 27.341C14.2873 26.9779 14.6035 26.6956 14.9166 26.8852C17.3058 28.3323 20.2239 28.898 22.9785 28.4211C23.2004 28.3827 23.4177 28.3359 23.6304 28.2811" stroke="#038546" stroke-width="0.683594" stroke-miterlimit="10" stroke-linecap="round" stroke-linejoin="round"/>
<path d="M26.9132 23.5304C27.4917 22.5388 27.764 21.3785 27.5629 20.2543C27.3388 19.0013 26.1543 17.9496 24.8249 18.4238C24.3027 18.61 23.8865 18.9971 23.6967 19.5225C23.4823 20.1158 23.581 20.6098 23.0963 21.0998C22.7399 21.4602 22.2591 21.6609 21.7875 21.8218C21.5564 21.9006 21.292 21.9725 21.0458 22.0379" stroke="#038546" stroke-width="0.683594" stroke-miterlimit="10" stroke-linecap="round" stroke-linejoin="round"/>
<path d="M19.5467 22.5495C19.3212 22.6675 19.1112 22.8109 18.9255 22.9924C18.2494 23.6536 17.92 24.645 18.3709 25.5265C18.5866 25.9482 18.9737 26.2667 19.4065 26.4595C20.7477 27.057 22.4369 26.7889 23.8747 26.1359" stroke="#038546" stroke-width="0.683594" stroke-miterlimit="10" stroke-linecap="round" stroke-linejoin="round"/>
<path d="M31.3462 29.3621C30.6751 30.6918 29.2969 31.6038 27.7057 31.6038C25.455 31.6038 23.6304 29.7792 23.6304 27.5284C23.6304 25.2777 25.455 23.4531 27.7057 23.4531C29.9565 23.4531 31.7811 25.2777 31.7811 27.5284C31.7811 27.629 31.7774 27.7286 31.7703 27.8274" stroke="#038546" stroke-width="0.683594" stroke-miterlimit="10" stroke-linecap="round" stroke-linejoin="round"/>
<path d="M29.7956 26.6149H28.8636C28.7287 26.6149 28.6193 26.5056 28.6193 26.3707V25.4386C28.6193 25.3038 28.51 25.1944 28.3751 25.1944H27.0365C26.9016 25.1944 26.7923 25.3038 26.7923 25.4386V26.3707C26.7923 26.5056 26.6829 26.6149 26.548 26.6149H25.6159C25.4811 26.6149 25.3718 26.7243 25.3718 26.8591V28.1978C25.3718 28.3327 25.4811 28.442 25.6159 28.442H26.548C26.6829 28.442 26.7923 28.5513 26.7923 28.6862V29.6183C26.7923 29.7532 26.9016 29.8625 27.0365 29.8625H28.3751C28.51 29.8625 28.6193 29.7532 28.6193 29.6183V28.6862C28.6193 28.5513 28.7287 28.442 28.8636 28.442H29.7956C29.9305 28.442 30.0398 28.3327 30.0398 28.1978V26.8591C30.0398 26.7243 29.9305 26.6149 29.7956 26.6149Z" stroke="#038546" stroke-width="0.683594" stroke-miterlimit="10" stroke-linecap="round" stroke-linejoin="round"/>
</g>
<defs>
<clipPath id="clip0_297_6009">
<rect width="23.3333" height="23.3333" fill="white" transform="translate(9.61121 8.61108)"/>
</clipPath>
</defs>
</svg>
