<svg width="12" height="12" viewBox="0 0 12 12" fill="none" xmlns="http://www.w3.org/2000/svg">
<path d="M11.5716 7.44385C11.4556 7.44385 11.3443 7.48994 11.2622 7.57199C11.1802 7.65404 11.1341 7.76532 11.1341 7.88135V9.37541C11.1341 9.72757 10.9942 10.0653 10.7452 10.3143C10.4962 10.5633 10.1584 10.7032 9.80628 10.7032H2.19378C1.84162 10.7032 1.50389 10.5633 1.25487 10.3143C1.00586 10.0653 0.865967 9.72757 0.865967 9.37541V7.88135C0.865967 7.76532 0.819873 7.65404 0.737826 7.57199C0.655779 7.48994 0.544499 7.44385 0.428467 7.44385C0.312435 7.44385 0.201155 7.48994 0.119108 7.57199C0.0370604 7.65404 -0.0090332 7.76532 -0.0090332 7.88135V9.37541C-0.00845408 9.95945 0.223813 10.5194 0.636795 10.9324C1.04978 11.3454 1.60973 11.5776 2.19378 11.5782H9.80628C10.3903 11.5776 10.9503 11.3454 11.3633 10.9324C11.7762 10.5194 12.0085 9.95945 12.0091 9.37541V7.88135C12.0091 7.76532 11.963 7.65404 11.881 7.57199C11.7989 7.48994 11.6876 7.44385 11.5716 7.44385Z" fill="#004222"/>
<path d="M5.68934 8.72125C5.73001 8.76226 5.77839 8.7948 5.83171 8.81701C5.88502 8.83923 5.9422 8.85066 5.99996 8.85066C6.05772 8.85066 6.1149 8.83923 6.16821 8.81701C6.22153 8.7948 6.26991 8.76226 6.31058 8.72125L8.79996 6.23187C8.86942 6.1483 8.90528 6.04186 8.90058 5.93329C8.89587 5.82472 8.85092 5.72179 8.77449 5.64454C8.69806 5.56729 8.59561 5.52125 8.4871 5.51538C8.37858 5.50952 8.27177 5.54425 8.18746 5.61281L6.43746 7.36281V0.859375C6.43746 0.743343 6.39137 0.632063 6.30932 0.550016C6.22727 0.467969 6.11599 0.421875 5.99996 0.421875C5.88393 0.421875 5.77265 0.467969 5.6906 0.550016C5.60855 0.632063 5.56246 0.743343 5.56246 0.859375V7.35625L3.81246 5.60625C3.73037 5.52416 3.61903 5.47804 3.50293 5.47804C3.38683 5.47804 3.27549 5.52416 3.1934 5.60625C3.1113 5.68834 3.06519 5.79968 3.06519 5.91578C3.06519 6.03188 3.1113 6.14322 3.1934 6.22531L5.68934 8.72125Z" fill="#004222"/>
</svg>
