<svg width="16" height="17" viewBox="0 0 16 17" fill="none" xmlns="http://www.w3.org/2000/svg">
<path d="M5.90467 8.83733C4.24667 7.59733 3.064 6.23333 2.418 5.46667C2.218 5.22933 2.15267 5.05533 2.11333 4.74933C1.97867 3.70133 1.91133 3.17733 2.21867 2.83867C2.526 2.5 3.06933 2.5 4.156 2.5H11.844C12.9307 2.5 13.474 2.5 13.7813 2.838C14.0887 3.17667 14.0213 3.70067 13.8867 4.74867C13.8467 5.05467 13.7813 5.22867 13.582 5.466C12.9353 6.234 11.7507 7.60067 10.0887 8.84267C10.0118 8.90247 9.94828 8.97765 9.90213 9.0634C9.85599 9.14915 9.82824 9.24358 9.82066 9.34067C9.656 11.1613 9.504 12.1587 9.40933 12.6627C9.25666 13.4773 8.10266 13.9673 7.484 14.404C7.116 14.664 6.66933 14.3547 6.622 13.952C6.44498 12.4177 6.29518 10.8803 6.17266 9.34067C6.16582 9.24266 6.13841 9.14719 6.09224 9.06047C6.04607 8.97375 5.98216 8.89773 5.90467 8.83733Z" stroke="#536553" stroke-linecap="round" stroke-linejoin="round"/>
<path d="M12 7.5C9.79449 7.5 8 9.29449 8 11.5C8 13.7055 9.79449 15.5 12 15.5C14.2055 15.5 16 13.7055 16 11.5C16 9.29449 14.2055 7.5 12 7.5ZM14.2356 10.4474L11.6792 12.9837C11.5288 13.1341 11.2882 13.1441 11.1278 12.9937L9.77444 11.7607C9.61404 11.6103 9.60401 11.3596 9.74436 11.1992C9.89474 11.0388 10.1454 11.0288 10.3058 11.1792L11.3784 12.1617L13.6642 9.87594C13.8246 9.71554 14.0752 9.71554 14.2356 9.87594C14.396 10.0363 14.396 10.287 14.2356 10.4474Z" fill="#038546"/>
</svg>
