<svg width="14" height="14" viewBox="0 0 14 14" fill="none" xmlns="http://www.w3.org/2000/svg">
<path d="M7 13.2211C6.80069 13.2211 6.60854 13.1489 6.45879 13.0178C5.89322 12.5232 5.34795 12.0585 4.86687 11.6485L4.86441 11.6464C3.45396 10.4445 2.23599 9.40646 1.38855 8.38396C0.441238 7.24086 0 6.15704 0 4.97304C0 3.82268 0.394455 2.7614 1.11063 1.98456C1.83534 1.19853 2.82976 0.765625 3.91101 0.765625C4.71915 0.765625 5.45924 1.02112 6.11069 1.52495C6.43945 1.77927 6.73746 2.09052 7 2.45357C7.26265 2.09052 7.56055 1.77927 7.88942 1.52495C8.54086 1.02112 9.28096 0.765625 10.0891 0.765625C11.1702 0.765625 12.1648 1.19853 12.8895 1.98456C13.6057 2.7614 14 3.82268 14 4.97304C14 6.15704 13.5589 7.24086 12.6116 8.38385C11.7641 9.40646 10.5462 10.4444 9.13602 11.6462C8.65408 12.0568 8.10796 12.5223 7.54111 13.018C7.39146 13.1489 7.1992 13.2211 7 13.2211ZM3.91101 1.58572C3.06154 1.58572 2.28117 1.92474 1.71347 2.54041C1.13733 3.16536 0.819992 4.02925 0.819992 4.97304C0.819992 5.96884 1.19009 6.85944 2.01991 7.86069C2.82196 8.82851 4.01494 9.84514 5.39622 11.0223L5.39879 11.0244C5.88168 11.436 6.42909 11.9025 6.99883 12.4007C7.57198 11.9016 8.12024 11.4343 8.6041 11.0221C9.98528 9.84492 11.1781 8.82851 11.9802 7.86069C12.8099 6.85944 13.18 5.96884 13.18 4.97304C13.18 4.02925 12.8627 3.16536 12.2865 2.54041C11.7189 1.92474 10.9385 1.58572 10.0891 1.58572C9.46681 1.58572 8.89548 1.78354 8.39101 2.17361C7.94144 2.52139 7.62827 2.96103 7.44466 3.26865C7.35023 3.42683 7.18404 3.52126 7 3.52126C6.81596 3.52126 6.64977 3.42683 6.55534 3.26865C6.37184 2.96103 6.05867 2.52139 5.60899 2.17361C5.10452 1.78354 4.53319 1.58572 3.91101 1.58572Z" fill="#004222"/>
</svg>
