<svg width="14" height="12" viewBox="0 0 14 12" fill="none" xmlns="http://www.w3.org/2000/svg">
<path d="M13.1666 1.6108C12.6654 0.95221 11.9573 0.481227 11.1561 0.273513C10.355 0.0657998 9.50723 0.133413 8.74912 0.465492C8.07058 0.758306 7.46541 1.25199 6.97461 1.90714C6.48381 1.25039 5.87864 0.756704 5.2001 0.465492C4.44199 0.133413 3.59426 0.0657998 2.79309 0.273513C1.99193 0.481227 1.28384 0.95221 0.782573 1.6108C0.253969 2.30343 -0.0253906 3.16906 -0.0253906 4.11382C-0.0253906 5.47345 0.785456 6.96508 2.3844 8.54897C3.68733 9.83908 5.22701 10.8957 6.02857 11.4105C6.31099 11.5912 6.63929 11.6873 6.97461 11.6873C7.30993 11.6873 7.63823 11.5912 7.92065 11.4105C8.72157 10.8957 10.2619 9.83908 11.5648 8.54897C13.1638 6.96572 13.9746 5.47345 13.9746 4.11382C13.9746 3.16906 13.6953 2.30343 13.1666 1.6108Z" fill="#F9595F"/>
</svg>
