<svg width="24" height="24" viewBox="0 0 24 24" fill="none" xmlns="http://www.w3.org/2000/svg">
<circle cx="12" cy="12" r="12" transform="rotate(90 12 12)" fill="#F4F6F4"/>
<path d="M14.2583 15.2332L11.025 11.9998L14.2583 8.7665C14.3354 8.68934 14.3966 8.59775 14.4384 8.49695C14.4802 8.39614 14.5016 8.2881 14.5016 8.179C14.5016 8.06989 14.4802 7.96185 14.4384 7.86104C14.3966 7.76024 14.3354 7.66865 14.2583 7.5915C14.1811 7.51434 14.0896 7.45314 13.9887 7.41139C13.8879 7.36964 13.7799 7.34814 13.6708 7.34814C13.5617 7.34814 13.4536 7.36964 13.3528 7.41139C13.252 7.45314 13.1604 7.51434 13.0833 7.5915L9.25829 11.4165C8.93329 11.7415 8.93329 12.2665 9.25829 12.5915L13.0833 16.4165C13.1604 16.4937 13.252 16.555 13.3528 16.5969C13.4536 16.6387 13.5617 16.6602 13.6708 16.6602C13.7799 16.6602 13.888 16.6387 13.9888 16.5969C14.0896 16.555 14.1812 16.4937 14.2583 16.4165C14.575 16.0915 14.5833 15.5582 14.2583 15.2332V15.2332Z" fill="#535B65"/>
</svg>
