<svg width="17" height="18" viewBox="0 0 17 18" fill="none" xmlns="http://www.w3.org/2000/svg">
<path fill-rule="evenodd" clip-rule="evenodd" d="M5.57219 9.06959H5.59968H6.15968C7.04304 9.06959 7.80968 9.75863 7.80968 10.6696C7.80968 11.5805 7.04304 12.2696 6.15968 12.2696H5.35968V13.6696C5.35968 14.001 5.09105 14.2696 4.75968 14.2696C4.42831 14.2696 4.15968 14.001 4.15968 13.6696V10.4696C4.15968 10.4602 4.15968 10.4508 4.15968 10.4414C4.1596 10.2779 4.15952 10.0986 4.18095 9.94679C4.2065 9.76583 4.27228 9.53951 4.4689 9.35223C4.6614 9.16887 4.88688 9.11159 5.06262 9.08903C5.21588 9.06943 5.39846 9.06951 5.57219 9.06959ZM5.35968 11.0696H6.15968C6.43613 11.0696 6.60968 10.8632 6.60968 10.6696C6.60968 10.4759 6.43613 10.2696 6.15968 10.2696H5.59968C5.50269 10.2696 5.42627 10.2696 5.36064 10.271C5.35971 10.3262 5.35968 10.3902 5.35968 10.4696V11.0696ZM14.8764 9.06959H15.9597C16.291 9.06959 16.5597 9.33815 16.5597 9.66959C16.5597 10.001 16.291 10.2696 15.9597 10.2696H14.9097C14.5635 10.2696 14.3614 10.2707 14.2178 10.2891C14.181 10.2938 14.1555 10.2989 14.1387 10.3031C14.1358 10.3155 14.1326 10.3326 14.1294 10.3553C14.1111 10.4851 14.1097 10.6709 14.1097 11.0029V11.0696H15.2597C15.591 11.0696 15.8597 11.3382 15.8597 11.6696C15.8597 12.001 15.591 12.2696 15.2597 12.2696H14.1097V13.6696C14.1097 14.001 13.841 14.2696 13.5097 14.2696C13.1783 14.2696 12.9097 14.001 12.9097 13.6696V11.0029C12.9097 10.9913 12.9097 10.9796 12.9097 10.968C12.9096 10.684 12.9096 10.4115 12.9412 10.1875C12.977 9.93391 13.0633 9.65663 13.3009 9.43031C13.5344 9.20799 13.8134 9.13111 14.0654 9.09879C14.2946 9.06951 14.5752 9.06951 14.8764 9.06959ZM9.64168 9.06959H9.65968C11.123 9.06959 12.3597 10.2064 12.3597 11.6696C12.3597 13.1327 11.123 14.2696 9.65968 14.2696C9.65368 14.2696 9.64776 14.2696 9.64168 14.2696C9.52664 14.2696 9.40544 14.2696 9.30152 14.2606C9.18488 14.2506 9.03352 14.2258 8.88056 14.1418C8.57416 13.9733 8.44032 13.7042 8.39048 13.4712C8.35528 13.3066 8.358 13.1242 8.35928 13.036C8.35952 13.0227 8.35968 13.0115 8.35968 13.0029V10.3362C8.35968 10.3276 8.35952 10.3165 8.35928 10.3031C8.358 10.215 8.35528 10.0326 8.39048 9.86791C8.44032 9.63487 8.57416 9.36591 8.88056 9.19735C9.03352 9.11327 9.18488 9.08855 9.30152 9.07847C9.40544 9.06951 9.52664 9.06951 9.64168 9.06959ZM9.55928 10.2697V10.271C9.55952 10.2914 9.55968 10.3151 9.55968 10.3362V13.0029C9.55968 13.024 9.55952 13.0478 9.55928 13.0682V13.0694C9.58888 13.0696 9.62192 13.0696 9.65968 13.0696C10.516 13.0696 11.1597 12.4155 11.1597 11.6696C11.1597 10.9236 10.516 10.2696 9.65968 10.2696C9.62192 10.2696 9.58888 10.2696 9.55928 10.2697Z" fill="white"/>
<path fill-rule="evenodd" clip-rule="evenodd" d="M4.75541 16.193C5.48255 16.2688 6.42416 16.2696 7.74155 16.2696H11.1597C11.4911 16.2696 11.7597 16.5382 11.7597 16.8696C11.7597 17.201 11.4911 17.4696 11.1597 17.4696H7.70683C6.43176 17.4696 5.42762 17.4696 4.63101 17.3866C3.81762 17.3018 3.14877 17.1249 2.5766 16.7218C2.27116 16.5066 1.99877 16.2505 1.76829 15.9607C1.33239 15.4127 1.14011 14.7682 1.0486 13.9905C0.959693 13.235 0.959701 12.285 0.959717 11.0898V8.9932C0.959717 7.8264 0.959709 6.92108 1.00791 6.19034C1.05676 5.4497 1.15695 4.84696 1.37707 4.29152C2.04756 2.59961 3.45943 1.27865 5.23167 0.656517C6.33477 0.269285 7.68835 0.269381 10.0606 0.269557C10.1114 0.269565 10.1626 0.269565 10.2143 0.269565C10.2604 0.269565 10.3059 0.269557 10.3507 0.269549C11.6589 0.269277 12.4741 0.269109 13.1466 0.505197C14.2259 0.884053 15.0911 1.69054 15.5031 2.73023C15.6428 3.08282 15.7028 3.45714 15.7316 3.89309C15.7597 4.31917 15.7597 4.84361 15.7597 5.50311V7.2696C15.7597 7.60096 15.4911 7.8696 15.1597 7.8696C14.8283 7.8696 14.5597 7.60096 14.5597 7.2696V5.52411C14.5597 4.8389 14.5594 4.35401 14.5342 3.97206C14.5094 3.59548 14.4622 3.36068 14.3876 3.17233C14.1103 2.47274 13.5179 1.90731 12.7492 1.63746C12.2953 1.47813 11.7043 1.46957 10.2143 1.46957C7.64483 1.46957 6.51407 1.47813 5.62914 1.78878C4.16742 2.3019 3.02837 3.38181 2.49266 4.73361C2.33763 5.12482 2.25025 5.58804 2.20531 6.26933C2.16002 6.95597 2.15972 7.82184 2.15972 9.01504V11.0514C2.15972 12.2937 2.16069 13.173 2.24037 13.8503C2.31841 14.5134 2.46521 14.9092 2.70745 15.2138C2.86559 15.4126 3.05407 15.5902 3.26775 15.7408C3.60149 15.9759 4.03784 16.1182 4.75541 16.193Z" fill="white"/>
<path fill-rule="evenodd" clip-rule="evenodd" d="M1.55972 9.46956C1.22834 9.46956 0.959717 9.20092 0.959717 8.86956C0.959717 7.0654 2.42225 5.60287 4.22638 5.60287C4.37499 5.60287 4.52668 5.60936 4.66832 5.61592C4.68658 5.61677 4.70468 5.61762 4.72261 5.61846C4.84796 5.62434 4.96595 5.62987 5.08359 5.63232C5.3561 5.63797 5.57417 5.62486 5.74952 5.57788C6.00258 5.51007 6.20025 5.3124 6.26806 5.05933C6.31505 4.88399 6.32816 4.66592 6.32249 4.3934C6.32005 4.27578 6.31453 4.1578 6.30864 4.03248C6.30781 4.01452 6.30696 3.99641 6.30611 3.97813C6.29953 3.83649 6.29305 3.6848 6.29305 3.5362C6.29305 1.73207 7.75555 0.269531 9.55971 0.269531C9.89107 0.269531 10.1597 0.538163 10.1597 0.869531C10.1597 1.2009 9.89107 1.46953 9.55971 1.46953C8.41835 1.46953 7.49307 2.39481 7.49307 3.5362C7.49307 3.6539 7.49819 3.78044 7.50483 3.92252C7.50563 3.93983 7.50643 3.95739 7.50731 3.97518C7.51307 4.09912 7.51947 4.23398 7.52227 4.36849C7.52859 4.67256 7.51899 5.0274 7.42715 5.36992C7.24843 6.03709 6.72728 6.55822 6.0601 6.73699C5.71758 6.82876 5.36275 6.83837 5.05868 6.83205C4.92416 6.82926 4.78929 6.82292 4.66536 6.8171C4.64757 6.81626 4.63001 6.81544 4.61271 6.81464C4.47063 6.80804 4.34408 6.80287 4.22638 6.80287C3.08499 6.80287 2.15972 7.72812 2.15972 8.86956C2.15972 9.20092 1.89108 9.46956 1.55972 9.46956Z" fill="white"/>
</svg>
