<svg width="20" height="20" viewBox="0 0 20 20" fill="none" xmlns="http://www.w3.org/2000/svg">
<path d="M15 15H5C3.27496 14.9979 1.87707 13.6 1.875 11.875V5.625C1.87707 3.89996 3.27496 2.50207 5 2.5H15C16.725 2.50207 18.1229 3.89996 18.125 5.625V11.875C18.1229 13.6 16.725 14.9979 15 15ZM5 3.75C3.96445 3.75 3.125 4.58945 3.125 5.625V11.875C3.125 12.9105 3.96445 13.75 5 13.75H15C16.0355 13.75 16.875 12.9105 16.875 11.875V5.625C16.875 4.58945 16.0355 3.75 15 3.75H5Z" fill="white"/>
<path d="M16.25 17.5H3.75C3.4048 17.5 3.125 17.2202 3.125 16.875C3.125 16.5298 3.4048 16.25 3.75 16.25H16.25C16.5952 16.25 16.875 16.5298 16.875 16.875C16.875 17.2202 16.5952 17.5 16.25 17.5Z" fill="white"/>
<path d="M8.82068 12.0444C8.13162 12.0413 7.57376 11.4834 7.57068 10.7944V6.70748C7.57068 6.01713 8.13037 5.45748 8.82072 5.45752C9.04013 5.45752 9.25568 5.51529 9.44568 5.62498L12.9826 7.66748C13.5804 8.01268 13.7852 8.77717 13.44 9.37502C13.3303 9.56502 13.1726 9.72275 12.9826 9.83248L9.44568 11.875C9.25595 11.9856 9.04033 12.044 8.82068 12.0444ZM12.3582 8.74998L8.82068 6.70748V10.7925L12.3582 8.74998Z" fill="white"/>
</svg>
