<svg width="24" height="24" viewBox="0 0 24 24" fill="none" xmlns="http://www.w3.org/2000/svg">
<circle cx="12" cy="12" r="12" transform="rotate(-90 12 12)" fill="#F8EFE6"/>
<path d="M9.7417 8.76684L12.975 12.0002L9.7417 15.2335C9.66455 15.3107 9.60335 15.4022 9.5616 15.5031C9.51984 15.6039 9.49835 15.7119 9.49835 15.821C9.49835 15.9301 9.51984 16.0382 9.5616 16.139C9.60335 16.2398 9.66455 16.3314 9.7417 16.4085C9.81885 16.4857 9.91045 16.5469 10.0113 16.5886C10.1121 16.6304 10.2201 16.6519 10.3292 16.6519C10.4383 16.6519 10.5464 16.6304 10.6472 16.5886C10.748 16.5469 10.8396 16.4857 10.9167 16.4085L14.7417 12.5835C15.0667 12.2585 15.0667 11.7335 14.7417 11.4085L10.9167 7.58351C10.8396 7.50625 10.748 7.44496 10.6472 7.40314C10.5464 7.36133 10.4383 7.3398 10.3292 7.3398C10.2201 7.3398 10.112 7.36133 10.0112 7.40314C9.91037 7.44496 9.8188 7.50625 9.7417 7.58351C9.42504 7.90851 9.4167 8.44184 9.7417 8.76684V8.76684Z" fill="#535B65"/>
</svg>
