<svg width="20" height="19" viewBox="0 0 20 19" fill="none" xmlns="http://www.w3.org/2000/svg">
<path d="M11.761 1.66605L11.7605 1.66484C11.5252 1.1173 10.9877 0.761083 10.3898 0.761083C9.79175 0.761083 9.25422 1.11756 9.01899 1.66607L9.01868 1.66679L7.2442 5.81943L2.7567 6.22683L2.75572 6.22692C2.16121 6.28188 1.65843 6.68441 1.47401 7.25155C1.28973 7.81827 1.45947 8.44161 1.91007 8.83522C1.91028 8.8354 1.91048 8.83558 1.91069 8.83576L5.30206 11.81L4.30157 16.2171L4.30144 16.2177C4.16986 16.8001 4.39604 17.4051 4.88171 17.7562L4.88183 17.7563C5.14041 17.9431 5.44577 18.0398 5.75511 18.0398C6.02225 18.0398 6.28579 17.9676 6.51971 17.8277C6.5198 17.8276 6.51989 17.8276 6.51997 17.8275L10.3898 15.5147L14.257 17.8268C14.2571 17.8269 14.2573 17.827 14.2574 17.8271C14.7695 18.1349 15.4145 18.1061 15.8978 17.7558C16.3827 17.4043 16.6092 16.7996 16.4774 16.2175L16.4774 16.2171L15.4769 11.8101L18.8688 8.83587C18.869 8.83575 18.8691 8.83563 18.8693 8.83551C18.8693 8.83549 18.8693 8.83547 18.8693 8.83545C19.3183 8.44232 19.4901 7.82076 19.306 7.25252C19.1224 6.68459 18.6182 6.2807 18.0222 6.22683C18.0222 6.22682 18.0221 6.22682 18.0221 6.22681C18.022 6.22681 18.0219 6.2268 18.0218 6.22679L13.5355 5.81943L11.761 1.66605Z" stroke="#042B0B" stroke-width="1.19854"/>
</svg>
